<?xml version="1.0" standalone="no"?>
<!DOCTYPE svg PUBLIC "-//W3C//DTD SVG 20010904//EN"
 "http://www.w3.org/TR/2001/REC-SVG-20010904/DTD/svg10.dtd">
<svg version="1.0" xmlns="http://www.w3.org/2000/svg"
 width="543.000000pt" height="543.000000pt" viewBox="0 0 543.000000 543.000000"
 preserveAspectRatio="xMidYMid meet">
<metadata>
Created by potrace 1.14, written by Peter Selinger 2001-2017
</metadata>
<g transform="translate(0.000000,543.000000) scale(0.100000,-0.100000)"
fill="#000000" stroke="none">
<path d="M2269 5392 c-14 -15 -50 -48 -80 -74 -50 -44 -57 -47 -94 -42 -22 3
-51 7 -65 9 -14 2 -62 13 -108 24 -46 11 -90 17 -99 14 -8 -3 -29 -21 -47 -39
-34 -35 -62 -38 -94 -12 -8 7 -17 12 -19 10 -5 -4 -65 29 -100 56 -36 27 -62
24 -70 -8 -3 -11 -9 -20 -14 -20 -5 0 -8 -3 -7 -7 1 -5 -2 -33 -6 -63 -4 -30
-8 -68 -10 -85 -5 -43 -16 -65 -32 -65 -8 0 -14 -5 -14 -11 0 -5 -4 -8 -8 -5
-15 9 -66 -48 -95 -107 -33 -66 -40 -72 -67 -57 -14 8 -20 8 -20 0 0 -6 -5 -8
-10 -5 -23 14 -66 -69 -49 -96 22 -36 -7 -111 -46 -117 -11 -2 -24 -5 -30 -5
-5 -1 -13 -6 -17 -11 -3 -5 -47 -9 -97 -10 -50 -1 -91 -4 -91 -8 0 -5 -6 -8
-14 -8 -13 0 -43 -57 -38 -72 1 -5 -2 -8 -6 -8 -5 0 -9 -12 -9 -27 -1 -29 -10
-85 -19 -115 -3 -9 -7 -27 -9 -39 -3 -12 -10 -26 -16 -30 -8 -5 -7 -8 2 -12
10 -4 10 -6 2 -6 -7 -1 -13 -7 -13 -15 0 -8 -6 -21 -13 -28 -6 -7 -20 -29 -31
-48 -26 -50 -82 -98 -122 -106 -19 -3 -38 -4 -41 -1 -3 3 -11 1 -19 -6 -7 -7
-20 -18 -29 -25 -17 -15 -21 -97 -5 -107 6 -4 8 -11 5 -16 -4 -5 -2 -9 4 -9
10 0 26 -70 24 -105 -3 -42 -12 -130 -14 -132 -2 -4 -4 -13 -13 -66 -6 -37
-16 -56 -49 -88 -23 -22 -58 -48 -77 -57 -33 -16 -39 -18 -59 -21 -5 0 -15
-11 -24 -24 -13 -20 -13 -28 0 -67 9 -25 19 -47 22 -50 4 -3 18 -24 31 -47 13
-24 28 -43 34 -43 5 0 7 -3 3 -6 -3 -4 0 -19 8 -34 8 -15 16 -38 19 -51 2 -13
7 -32 11 -42 8 -20 -2 -70 -13 -63 -5 3 -14 -4 -22 -14 -8 -10 -17 -17 -22
-14 -4 3 -8 0 -8 -6 0 -6 -4 -9 -9 -5 -6 3 -15 -4 -21 -16 -7 -12 -18 -19 -29
-16 -29 7 -44 -20 -36 -69 3 -24 10 -44 16 -44 5 0 9 -6 9 -13 0 -7 10 -19 22
-27 13 -8 45 -37 72 -63 44 -44 49 -53 50 -93 0 -25 -4 -48 -10 -52 -5 -4 -17
-19 -27 -34 -9 -15 -28 -30 -40 -33 -77 -20 -43 -131 57 -189 36 -20 76 -35
99 -35 4 0 19 -12 34 -25 31 -29 35 -75 8 -102 -10 -11 -13 -20 -7 -22 6 -2 9
-9 6 -17 -9 -22 33 -55 86 -67 28 -6 51 -16 52 -22 0 -6 2 -15 2 -21 1 -5 5
-16 10 -24 5 -7 10 -43 11 -80 1 -52 -3 -76 -22 -112 -13 -26 -23 -50 -23 -55
0 -4 -8 -16 -17 -26 -9 -11 -18 -27 -20 -36 -3 -22 17 -72 29 -72 5 0 7 -4 4
-8 -6 -10 89 -70 119 -75 11 -2 28 -7 37 -11 9 -4 22 -5 28 -1 5 3 10 2 10 -2
0 -9 82 -34 113 -34 9 0 17 -4 17 -8 0 -6 11 -8 68 -12 25 -1 144 -29 167 -39
139 -57 145 -88 43 -203 -21 -24 -25 -34 -17 -49 5 -10 7 -18 3 -18 -3 0 -1
-7 6 -15 7 -8 9 -15 6 -15 -4 0 11 -18 33 -40 55 -56 132 -88 212 -89 69 -1
259 37 259 51 0 5 4 7 9 4 7 -5 76 4 146 18 14 3 33 -9 60 -35 21 -21 42 -39
47 -39 4 0 10 0 13 0 3 0 14 -8 24 -17 37 -34 51 -44 51 -36 0 4 7 -2 15 -14
8 -12 15 -32 14 -45 -2 -73 1 -99 13 -111 20 -20 73 -44 91 -41 9 1 17 -1 17
-5 0 -9 90 -8 105 0 6 3 25 6 43 7 18 2 44 10 58 18 13 9 35 14 49 12 14 -3
25 -1 25 4 0 5 5 6 10 3 6 -3 10 -2 10 3 0 14 48 21 54 8 3 -7 5 -7 5 2 1 14
31 17 31 3 0 -6 12 -4 27 4 15 8 30 12 35 9 4 -3 8 0 8 6 0 6 5 8 10 5 6 -4
17 -2 24 4 7 6 31 13 52 16 56 6 64 9 144 43 19 8 43 17 53 19 23 4 110 46
162 78 22 13 48 29 57 35 11 6 19 7 23 0 3 -5 15 -6 28 -2 12 5 28 8 34 8 21
-1 73 -56 73 -77 0 -10 5 -19 12 -19 6 0 9 -3 5 -6 -3 -3 3 -25 13 -49 10 -24
16 -45 14 -48 -2 -2 2 -10 10 -16 8 -7 13 -18 10 -26 -3 -7 -1 -16 5 -20 6 -3
11 -15 11 -26 0 -10 5 -19 10 -19 6 0 10 -6 10 -13 0 -7 21 -55 47 -107 26
-52 46 -98 45 -102 -1 -5 2 -8 7 -8 8 0 24 -37 22 -52 -1 -5 4 -8 9 -8 6 0 10
-7 10 -15 0 -8 5 -15 10 -15 6 0 10 -7 10 -15 0 -8 5 -15 11 -15 5 0 7 -4 4
-10 -3 -5 -2 -10 3 -10 5 0 17 -18 27 -40 10 -22 22 -40 27 -40 4 0 8 -7 8
-15 0 -9 7 -18 15 -21 8 -4 13 -10 10 -15 -3 -4 2 -18 12 -29 10 -12 26 -31
35 -42 10 -11 20 -29 23 -39 4 -11 11 -19 17 -19 6 0 9 -3 5 -6 -3 -3 5 -18
19 -32 13 -15 24 -31 24 -37 0 -6 9 -17 20 -25 11 -8 20 -20 20 -27 0 -10 25
-13 99 -13 94 0 99 1 94 20 -3 11 -12 20 -21 20 -8 0 -12 3 -9 7 4 3 -5 16
-18 29 -14 13 -25 28 -25 34 0 5 -4 10 -9 10 -7 0 -20 31 -20 48 -1 1 -12 13
-26 26 -14 13 -25 28 -25 35 0 6 -3 11 -8 11 -4 0 -13 14 -21 32 -8 17 -22 39
-33 50 -10 10 -18 20 -18 23 0 3 0 12 0 22 0 9 -3 14 -6 10 -7 -7 -46 60 -47
80 0 7 -4 10 -8 8 -7 -5 -33 53 -30 68 0 4 -4 7 -10 7 -6 0 -9 7 -5 15 3 9 0
15 -8 15 -9 0 -12 7 -9 20 3 11 1 20 -4 20 -5 0 -20 24 -34 52 -13 29 -28 56
-32 59 -5 3 -7 9 -5 12 1 4 -4 14 -12 24 -9 10 -17 23 -18 28 -7 31 -15 45
-24 45 -5 0 -8 7 -4 15 3 8 1 15 -4 15 -6 0 -10 8 -10 18 0 11 -9 27 -20 37
-11 10 -20 31 -20 46 0 15 -7 35 -16 43 -8 9 -12 16 -9 16 4 0 -3 15 -14 33
-11 19 -18 37 -14 40 3 4 1 7 -6 7 -7 0 -9 5 -6 10 3 6 1 10 -5 10 -6 0 -8 5
-5 10 3 6 1 10 -6 10 -7 0 -9 3 -6 6 3 4 -5 15 -18 26 -22 17 -23 21 -10 34 8
9 15 19 15 24 0 11 66 73 72 68 3 -1 12 4 20 12 9 8 44 39 77 69 34 30 61 59
61 66 0 6 8 18 18 27 9 9 28 29 42 45 14 15 27 28 30 28 12 1 49 32 44 37 -3
4 4 9 15 13 12 3 21 11 21 16 0 5 5 9 11 9 7 0 22 11 35 25 13 14 28 25 34 25
5 0 10 4 10 10 0 5 3 9 8 9 19 -3 33 2 27 11 -3 6 1 10 9 10 9 0 16 4 16 9 0
5 14 12 30 16 17 4 30 11 30 16 0 6 4 8 9 5 22 -14 148 79 179 132 16 28 16
72 -1 72 -7 0 -20 16 -28 35 -15 33 -15 36 9 77 14 24 30 46 36 50 6 4 7 8 1
8 -5 0 1 7 13 16 18 13 76 108 71 116 -1 2 8 23 21 48 28 54 30 71 34 220 2
63 4 117 5 120 1 3 4 12 6 20 2 8 17 51 34 95 17 44 31 84 31 89 0 14 81 86
120 106 37 19 92 70 125 115 11 16 25 33 31 39 21 22 64 103 57 109 -3 4 -2 7
4 7 9 0 27 45 21 52 -1 2 4 13 11 26 6 12 8 22 3 22 -5 0 -8 10 -7 23 3 36
-14 86 -33 96 -10 5 -53 11 -95 13 -42 2 -77 6 -77 9 0 3 -6 6 -12 7 -43 3
-95 24 -110 44 -10 13 -18 40 -18 60 0 30 7 44 38 72 20 20 40 36 43 36 14 0
47 38 61 70 23 53 20 77 -13 101 -27 19 -67 79 -53 79 4 0 2 6 -4 13 -13 15
-17 78 -8 127 6 34 10 120 6 130 -1 3 -3 16 -6 29 -7 39 -45 98 -69 109 -17 8
-34 7 -65 -4 -67 -23 -145 -22 -196 4 -63 31 -78 42 -79 58 -3 36 -17 84 -24
84 -5 0 -20 30 -30 62 -1 4 -8 25 -15 45 -7 21 -12 50 -12 66 1 15 -2 27 -6
27 -6 0 -3 61 4 88 1 4 -3 17 -10 30 -7 12 -9 22 -5 22 4 1 -3 10 -16 20 -13
11 -19 20 -15 20 5 0 -4 8 -21 19 -16 10 -39 16 -50 14 -11 -2 -33 -4 -50 -4
-16 0 -32 -3 -35 -7 -27 -37 -120 -69 -120 -42 0 6 -8 10 -17 10 -9 0 -34 19
-55 42 -34 37 -42 60 -41 106 1 6 -2 12 -6 12 -3 0 -7 14 -8 30 -2 33 -40 89
-60 89 -7 1 -13 5 -13 11 0 6 -9 6 -22 1 -24 -9 -32 -11 -47 -11 -5 0 -16 -6
-23 -13 -54 -51 -110 -61 -157 -28 -14 10 -42 26 -61 34 -19 8 -51 29 -70 46
-19 18 -48 44 -65 59 -16 14 -28 26 -26 27 12 1 -43 86 -66 103 -33 23 -73 34
-73 20 0 -5 -4 -7 -9 -4 -5 3 -20 -6 -35 -19 -15 -14 -39 -28 -54 -31 -15 -4
-33 -11 -39 -17 -7 -5 -13 -6 -13 -2 0 4 -7 2 -15 -5 -27 -23 -181 -21 -245 2
-72 27 -162 69 -178 85 -7 7 -16 13 -20 14 -60 8 -69 6 -93 -19z"/>
<path d="M766 4671 c-6 -10 22 -37 29 -29 8 7 -5 38 -15 38 -5 0 -11 -4 -14
-9z"/>
<path d="M1936 722 c-3 -6 -1 -14 5 -17 14 -9 20 -2 10 14 -6 8 -11 9 -15 3z"/>
</g>
</svg>
